HIERARCHY
ROOT ETY1
{
	OFFSET 0.000000 0.000000 0.000000
	CHANNELS 6 Xposition Yposition Zposition Xrotation Yrotation Zrotation
	JOINT N_ALL
	{
		OFFSET 0.000000 0.000000 0.000000
		CHANNELS 3 Xrotation Yrotation Zrotation
		JOINT locator2
		{
			OFFSET 0.000000 0.000000 63.674999
			CHANNELS 3 Xrotation Yrotation Zrotation
			JOINT hara
			{
				OFFSET -0.000000 -0.000000 0.472500
				CHANNELS 3 Xrotation Yrotation Zrotation
				JOINT mune
				{
					OFFSET -0.000005 -0.000000 14.647499
					CHANNELS 3 Xrotation Yrotation Zrotation
					JOINT kubi
					{
						OFFSET -0.565367 0.000000 13.797264
						CHANNELS 3 Xrotation Yrotation Zrotation
						JOINT kao
						{
							OFFSET 0.709599 -0.000000 1.686798
							CHANNELS 3 Xrotation Yrotation Zrotation
							JOINT ago
							{
								OFFSET 1.521274 -0.000001 2.195969
								CHANNELS 3 Xrotation Yrotation Zrotation
								End Site
								{
									OFFSET -0.000000 0.000000 0.365990
								}
							}
							JOINT eyebrow
							{
								OFFSET 2.744157 -0.000001 4.250847
								CHANNELS 3 Xrotation Yrotation Zrotation
								End Site
								{
									OFFSET -0.000000 0.000000 0.365990
								}
							}
							JOINT lip
							{
								OFFSET 1.419795 -0.000001 0.927528
								CHANNELS 3 Xrotation Yrotation Zrotation
								End Site
								{
									OFFSET 0.365992 -0.000000 0.000000
								}
							}
						}
					}
					JOINT L_sako
					{
						OFFSET -0.472501 6.525000 10.465401
						CHANNELS 3 Xrotation Yrotation Zrotation
						JOINT L_kata
						{
							OFFSET -0.000001 5.850000 -0.581734
							CHANNELS 3 Xrotation Yrotation Zrotation
							JOINT L_hiji
							{
								OFFSET -0.483016 15.785759 -0.000015
								CHANNELS 3 Xrotation Yrotation Zrotation
								JOINT L_te
								{
									OFFSET 0.611527 17.032738 -0.013641
									CHANNELS 3 Xrotation Yrotation Zrotation
									JOINT LeftHandIndex1
									{
										OFFSET 2.549848 6.470253 0.791817
										CHANNELS 3 Xrotation Yrotation Zrotation
										JOINT LeftHandIndex2
										{
											OFFSET -0.000001 2.289848 0.000000
											CHANNELS 3 Xrotation Yrotation Zrotation
											JOINT LeftHandIndex3
											{
												OFFSET -0.000001 2.268135 0.000000
												CHANNELS 3 Xrotation Yrotation Zrotation
												End Site
												{
													OFFSET 0.000000 0.365993 0.000000
												}
											}
										}
									}
									JOINT LeftHandMiddle1
									{
										OFFSET 0.874708 6.694298 1.118919
										CHANNELS 3 Xrotation Yrotation Zrotation
										JOINT LeftHandMiddle2
										{
											OFFSET -0.000001 2.683815 0.000000
											CHANNELS 3 Xrotation Yrotation Zrotation
											JOINT LeftHandMiddle3
											{
												OFFSET -0.000001 2.217308 0.000000
												CHANNELS 3 Xrotation Yrotation Zrotation
												End Site
												{
													OFFSET -0.000000 0.365993 0.000000
												}
											}
										}
									}
									JOINT LeftHandPinky1
									{
										OFFSET -2.442180 5.931721 0.497902
										CHANNELS 3 Xrotation Yrotation Zrotation
										JOINT LeftHandPinky2
										{
											OFFSET -0.000000 2.137306 0.000000
											CHANNELS 3 Xrotation Yrotation Zrotation
											JOINT LeftHandPinky3
											{
												OFFSET -0.000000 1.836044 0.000000
												CHANNELS 3 Xrotation Yrotation Zrotation
												End Site
												{
													OFFSET 0.000000 0.365993 0.000000
												}
											}
										}
									}
									JOINT LeftHandRing1
									{
										OFFSET -0.853656 6.338440 0.870934
										CHANNELS 3 Xrotation Yrotation Zrotation
										JOINT LeftHandRing2
										{
											OFFSET -0.000001 2.531284 0.000000
											CHANNELS 3 Xrotation Yrotation Zrotation
											JOINT LeftHandRing3
											{
												OFFSET -0.000001 2.217308 0.000000
												CHANNELS 3 Xrotation Yrotation Zrotation
												End Site
												{
													OFFSET -0.000000 0.365993 0.000000
												}
											}
										}
									}
									JOINT LeftHandThumb1
									{
										OFFSET 2.594638 1.377514 -1.567856
										CHANNELS 3 Xrotation Yrotation Zrotation
										JOINT LeftHandThumb2
										{
											OFFSET 1.626614 2.409187 0.000557
											CHANNELS 3 Xrotation Yrotation Zrotation
											JOINT LeftHandThumb3
											{
												OFFSET 0.823900 2.113201 0.000290
												CHANNELS 3 Xrotation Yrotation Zrotation
												End Site
												{
													OFFSET 0.000000 0.365993 0.000000
												}
											}
										}
									}
								}
							}
						}
					}
					JOINT R_sako
					{
						OFFSET -0.472506 -6.525000 10.465546
						CHANNELS 3 Xrotation Yrotation Zrotation
						JOINT R_kata
						{
							OFFSET 0.000002 -5.850000 -0.581696
							CHANNELS 3 Xrotation Yrotation Zrotation
							JOINT R_hiji
							{
								OFFSET -0.483008 -15.785765 -0.000015
								CHANNELS 3 Xrotation Yrotation Zrotation
								JOINT R_te
								{
									OFFSET 0.611537 -17.032732 -0.013748
									CHANNELS 3 Xrotation Yrotation Zrotation
									JOINT RightHandIndex1
									{
										OFFSET 2.550124 -6.470253 0.790878
										CHANNELS 3 Xrotation Yrotation Zrotation
										JOINT RightHandIndex2
										{
											OFFSET 0.000001 -2.289848 0.000000
											CHANNELS 3 Xrotation Yrotation Zrotation
											JOINT RightHandIndex3
											{
												OFFSET 0.000001 -2.268135 0.000000
												CHANNELS 3 Xrotation Yrotation Zrotation
												End Site
												{
													OFFSET 0.000000 -0.365993 0.000000
												}
											}
										}
									}
									JOINT RightHandMiddle1
									{
										OFFSET 0.875098 -6.694302 1.118561
										CHANNELS 3 Xrotation Yrotation Zrotation
										JOINT RightHandMiddle2
										{
											OFFSET 0.000001 -2.683807 0.000000
											CHANNELS 3 Xrotation Yrotation Zrotation
											JOINT RightHandMiddle3
											{
												OFFSET 0.000001 -2.217308 0.000000
												CHANNELS 3 Xrotation Yrotation Zrotation
												End Site
												{
													OFFSET 0.000000 -0.365993 0.000000
												}
											}
										}
									}
									JOINT RightHandPinky1
									{
										OFFSET -2.442005 -5.931721 0.498680
										CHANNELS 3 Xrotation Yrotation Zrotation
										JOINT RightHandPinky2
										{
											OFFSET 0.000000 -2.137306 0.000000
											CHANNELS 3 Xrotation Yrotation Zrotation
											JOINT RightHandPinky3
											{
												OFFSET 0.000000 -1.836044 0.000000
												CHANNELS 3 Xrotation Yrotation Zrotation
												End Site
												{
													OFFSET 0.000000 -0.365993 0.000000
												}
											}
										}
									}
									JOINT RightHandRing1
									{
										OFFSET -0.853352 -6.338440 0.871170
										CHANNELS 3 Xrotation Yrotation Zrotation
										JOINT RightHandRing2
										{
											OFFSET 0.000001 -2.531284 0.000000
											CHANNELS 3 Xrotation Yrotation Zrotation
											JOINT RightHandRing3
											{
												OFFSET 0.000001 -2.217308 0.000000
												CHANNELS 3 Xrotation Yrotation Zrotation
												End Site
												{
													OFFSET 0.000000 -0.365993 0.000000
												}
											}
										}
									}
									JOINT RightHandThumb1
									{
										OFFSET 2.594098 -1.377514 -1.568817
										CHANNELS 3 Xrotation Yrotation Zrotation
										JOINT RightHandThumb2
										{
											OFFSET 1.626616 -2.409184 0.000000
											CHANNELS 3 Xrotation Yrotation Zrotation
											JOINT RightHandThumb3
											{
												OFFSET 0.823900 -2.113201 0.000000
												CHANNELS 3 Xrotation Yrotation Zrotation
												End Site
												{
													OFFSET 0.000000 -0.365993 0.000000
												}
											}
										}
									}
								}
							}
						}
					}
				}
			}
			JOINT koshi
			{
				OFFSET 0.000000 0.000000 0.000000
				CHANNELS 3 Xrotation Yrotation Zrotation
				JOINT L_momo
				{
					OFFSET 0.000005 5.033075 -8.541428
					CHANNELS 3 Xrotation Yrotation Zrotation
					JOINT L_hiza
					{
						OFFSET 0.236263 0.000015 -23.625002
						CHANNELS 3 Xrotation Yrotation Zrotation
						JOINT L_ashi
						{
							OFFSET -0.944986 0.000017 -25.908707
							CHANNELS 3 Xrotation Yrotation Zrotation
							JOINT L_ashi2
							{
								OFFSET 3.767458 0.000001 -3.875652
								CHANNELS 3 Xrotation Yrotation Zrotation
								End Site
								{
									OFFSET 0.365992 0.000000 0.000000
								}
							}
						}
					}
				}
				JOINT R_momo
				{
					OFFSET 0.000001 -5.033065 -8.541435
					CHANNELS 3 Xrotation Yrotation Zrotation
					JOINT R_hiza
					{
						OFFSET 0.236263 0.000015 -23.624998
						CHANNELS 3 Xrotation Yrotation Zrotation
						JOINT R_ashi
						{
							OFFSET -0.944986 0.000017 -25.908707
							CHANNELS 3 Xrotation Yrotation Zrotation
							JOINT R_ashi2
							{
								OFFSET 3.767459 0.000001 -3.875652
								CHANNELS 3 Xrotation Yrotation Zrotation
								End Site
								{
									OFFSET 0.365992 0.000000 0.000000
								}
							}
						}
					}
				}
			}
		}
	}
}
MOTION
Frames: 6
Frame Time: 0.041667
0.000000 0.000000 0.000000 -0.000000 0.000000 -89.999982 -0.000000 0.000000 -0.000000 -0.000000 0.000003 0.000000 -13.104109 49.091336 46.025134 4.527994 0.629723 32.301942 1.265645 17.400322 -52.451061 16.605278 -51.703648 4.126515 0.000002 4.044433 0.000002 0.000001 1.999889 -0.000017 -0.000004 -3.756026 0.000001 6.982096 -13.105607 -11.376086 -43.333237 -17.459126 22.529881 -45.099862 34.977822 -88.753930 -41.580607 -2.291165 -10.953816 -74.128870 11.593538 0.286453 -96.095045 0.021989 -0.019438 -96.095045 0.021896 -0.019606 -63.264620 0.010881 -0.017694 -95.048079 0.021523 -0.019749 -95.048250 0.021529 -0.019747 -84.444477 -10.119180 -0.020072 -89.056712 0.019460 -0.019712 -102.105830 0.023934 -0.019278 -75.502660 0.014778 -0.019308 -94.514880 0.021178 -0.020212 -94.514874 0.021174 -0.020214 -19.239091 1.320694 4.679950 -0.015060 -0.007118 49.512680 -0.017423 -0.010414 61.620976 -3.381473 2.565198 -27.886607 23.125733 -17.236963 19.644824 -2.972592 -1.496360 101.083439 -9.888995 0.641403 -3.023103 2.195534 11.506742 12.540702 44.638121 -0.000031 0.000046 72.017050 0.000016 0.000083 -3.080565 -0.000000 -0.000003 47.000243 0.000026 0.000026 79.984794 0.000054 0.000028 56.518702 -9.810143 0.413536 61.500820 -0.000134 0.000176 74.551911 0.000017 0.000082 26.630503 0.000336 0.000074 54.377479 0.000022 0.000075 80.332635 -0.000178 0.000338 25.305759 38.598663 14.038950 0.000010 -0.000046 -27.583528 0.000041 -0.000071 -61.618859 18.887080 25.154788 -2.250755 -33.132974 -68.985088 -13.780846 0.134876 59.135798 1.746642 1.881997 -24.690681 -0.190095 -0.680431 -0.883544 -0.028650 -31.731932 15.433217 -17.278497 -0.008010 44.085265 -0.160980 -7.962329 50.306464 31.511392 -0.000006 23.799950 0.000011 
0.000000 0.000000 0.000000 -0.000000 0.000000 -89.999982 -0.000000 0.000000 -0.000000 -0.000000 0.000003 0.000000 -13.104109 49.091336 46.025134 4.527994 0.629723 32.301942 1.265645 17.400322 -52.451061 16.605278 -51.703648 4.126515 0.000002 4.044433 0.000002 0.000001 1.999889 -0.000017 -0.000004 -3.756026 0.000001 6.982096 -13.105607 -11.376086 -43.333237 -17.459126 22.529881 -45.099862 34.977822 -88.753930 -41.580607 -2.291165 -10.953816 -74.128870 11.593538 0.286453 -96.095045 0.021989 -0.019438 -96.095045 0.021896 -0.019606 -63.264620 0.010881 -0.017694 -95.048079 0.021523 -0.019749 -95.048250 0.021529 -0.019747 -84.444477 -10.119180 -0.020072 -89.056712 0.019460 -0.019712 -102.105830 0.023934 -0.019278 -75.502660 0.014778 -0.019308 -94.514880 0.021178 -0.020212 -94.514874 0.021174 -0.020214 -19.239091 1.320694 4.679950 -0.015060 -0.007118 49.512680 -0.017423 -0.010414 61.620976 -3.381473 2.565198 -27.886607 23.125733 -17.236963 19.644824 -2.972592 -1.496360 101.083439 -9.888995 0.641403 -3.023103 2.195534 11.506742 12.540702 44.638121 -0.000031 0.000046 72.017050 0.000016 0.000083 -3.080565 -0.000000 -0.000003 47.000243 0.000026 0.000026 79.984794 0.000054 0.000028 56.518702 -9.810143 0.413536 61.500820 -0.000134 0.000176 74.551911 0.000017 0.000082 26.630503 0.000336 0.000074 54.377479 0.000022 0.000075 80.332635 -0.000178 0.000338 25.305759 38.598663 14.038950 0.000010 -0.000046 -27.583528 0.000041 -0.000071 -61.618859 18.887080 25.154788 -2.250755 -33.132974 -68.985088 -13.780846 0.134876 59.135798 1.746642 1.881997 -24.690681 -0.190095 -0.680431 -0.883544 -0.028650 -31.731932 15.433217 -17.278497 -0.008010 44.085265 -0.160980 -7.962329 50.306464 31.511392 -0.000006 23.799950 0.000011 
0.000000 8.282229 0.000000 -0.000000 0.000000 -89.999982 -0.000000 0.000000 -0.000000 -0.000000 0.000003 0.000000 -12.495154 49.253010 44.739392 4.861021 0.629443 30.862497 -2.295036 15.701246 -48.562092 15.543031 -48.988449 2.598678 0.000001 4.698862 0.000001 0.000001 1.999887 -0.000018 -0.000005 -3.577555 0.000000 5.277536 -12.644094 -10.405612 -39.165193 -17.243292 26.472287 -43.736679 32.761965 -88.783156 -46.088587 -1.680175 -14.483587 -74.128870 11.593531 0.286455 -96.095045 0.021990 -0.019443 -96.095045 0.021898 -0.019604 -63.264620 0.010874 -0.017693 -95.048079 0.021528 -0.019749 -95.048250 0.021529 -0.019748 -84.444477 -10.119179 -0.020070 -89.056712 0.019460 -0.019713 -102.105830 0.023936 -0.019278 -75.502653 0.014774 -0.019306 -94.514880 0.021175 -0.020215 -94.514874 0.021164 -0.020214 -19.239091 1.320695 4.679951 -0.015059 -0.007117 49.512677 -0.017423 -0.010415 61.620976 -4.488031 2.651368 -25.818527 21.859839 -15.770311 24.504762 -2.556391 -1.189767 101.335029 -9.949762 0.509698 -2.676901 8.784693 10.634890 11.206875 42.416130 -0.000034 0.000042 70.379314 0.000013 0.000079 3.309463 0.000006 0.000005 48.001381 0.000028 0.000025 79.768215 0.000055 0.000028 55.264806 -9.794856 -0.501211 60.291760 -0.000134 0.000170 79.004484 0.000021 0.000082 28.462477 0.000341 0.000064 52.642457 0.000020 0.000073 80.238214 -0.000174 0.000340 25.934167 32.484277 10.990224 0.000010 -0.000047 -27.566049 0.000038 -0.000064 -50.244507 18.405014 23.943389 -1.562714 -27.649605 -60.446880 -8.359986 0.113729 63.115510 1.709347 1.196828 -26.604625 3.005506 -0.154472 -0.479833 -0.000001 -34.809844 7.579689 -14.870452 -0.016946 66.252555 0.912176 -5.675501 43.850494 21.557211 -0.000005 22.440718 0.000011 
0.000000 16.564459 0.000000 -0.000000 0.000000 -89.999982 -0.000000 0.000000 -0.000000 -0.000000 0.000003 0.000000 -11.584646 50.103167 41.952958 5.772926 1.951720 29.104362 -8.351524 12.435013 -43.040242 14.584020 -46.222397 1.069740 0.000001 5.353239 0.000001 0.000000 1.999889 -0.000017 -0.000005 -3.399019 0.000000 0.547772 -11.928466 -9.011726 -33.897129 -18.343023 30.743283 -41.099748 30.222450 -87.680784 -50.566442 -0.088928 -19.357880 -74.128870 11.593531 0.286452 -96.095045 0.021992 -0.019444 -96.095045 0.021898 -0.019607 -63.264620 0.010875 -0.017691 -95.048079 0.021528 -0.019745 -95.048250 0.021529 -0.019748 -84.444484 -10.119181 -0.020072 -89.056712 0.019460 -0.019711 -102.105830 0.023939 -0.019279 -75.502653 0.014774 -0.019307 -94.514880 0.021178 -0.020211 -94.514874 0.021172 -0.020216 -19.239092 1.320694 4.679955 -0.015062 -0.007117 49.512677 -0.017423 -0.010413 61.620976 -6.391508 2.628681 -23.450719 16.885826 -15.085108 25.870984 -1.186506 -0.505883 102.296754 -10.004552 0.376729 -2.329269 16.030727 9.763719 9.902237 40.197186 -0.000033 0.000041 68.741510 0.000015 0.000080 9.695532 0.000006 0.000007 48.542294 0.000029 0.000025 79.551575 0.000055 0.000024 54.012730 -9.777470 -1.414719 59.082707 -0.000141 0.000164 83.460144 0.000032 0.000081 29.742011 0.000343 0.000055 50.910335 0.000019 0.000066 80.143848 -0.000176 0.000337 25.969431 25.878059 8.350428 0.000011 -0.000048 -27.547087 0.000033 -0.000056 -38.861092 17.636822 23.990928 -1.129857 -21.203455 -52.576498 -2.417696 0.087749 67.097934 0.741182 -0.222095 -32.167691 4.189571 1.015775 -5.775937 0.093161 -34.992009 -4.581490 -12.983043 -0.308356 88.706119 2.540897 -5.495131 32.472553 15.902046 -0.000004 18.320352 0.000009 
0.000000 24.851238 0.000000 -0.000000 0.000000 -89.999982 -0.000000 0.000000 -0.000000 -0.000000 0.000003 0.000000 -10.064611 51.396026 37.774679 7.423180 4.038678 26.802052 -15.467025 8.629493 -36.515052 13.948083 -44.180768 -0.125353 0.000002 6.007616 0.000001 0.000000 1.999889 -0.000018 -0.000004 -3.220483 -0.000001 -6.214276 -11.027834 -7.696845 -32.750180 -21.440544 33.328752 -35.917117 30.042317 -87.200588 -50.662553 2.180152 -22.023993 -74.128870 11.593534 0.286454 -96.095045 0.021989 -0.019445 -96.095045 0.021896 -0.019606 -63.264620 0.010873 -0.017692 -95.048079 0.021527 -0.019750 -95.048243 0.021528 -0.019746 -84.444484 -10.119182 -0.020071 -89.056712 0.019459 -0.019718 -102.105830 0.023935 -0.019279 -75.502660 0.014772 -0.019308 -94.514880 0.021173 -0.020219 -94.514874 0.021169 -0.020215 -19.239091 1.320694 4.679954 -0.015062 -0.007119 49.512673 -0.017423 -0.010416 61.620976 -5.501653 2.701272 -20.451622 12.791240 -16.661263 24.629903 0.875968 0.557702 102.840540 -10.064548 0.243506 -1.982695 21.877697 8.973159 8.836740 37.975254 -0.000035 0.000036 67.103713 0.000010 0.000076 16.081549 0.000009 0.000012 49.086210 0.000031 0.000021 79.335004 0.000051 0.000026 52.762709 -9.757082 -2.328083 57.870840 -0.000144 0.000163 87.912717 0.000038 0.000087 31.019072 0.000344 0.000051 49.178236 0.000016 0.000069 80.049421 -0.000179 0.000338 25.549188 20.164236 6.265872 0.000009 -0.000047 -27.529667 0.000026 -0.000052 -27.479975 15.992336 24.814535 0.676947 -16.858007 -43.413437 0.906756 0.038692 65.492976 0.324328 -1.932701 -25.507055 1.270099 -0.000004 -20.260165 -0.000010 -29.743920 -17.315008 -12.533797 0.032131 106.856404 2.035385 -1.119326 15.998024 12.582445 -0.000002 14.201411 0.000007 
0.000000 33.133469 0.000000 -0.000000 0.000000 -89.999982 -0.000000 0.000000 -0.000000 -0.000000 0.000003 0.000000 -8.494642 52.846451 33.113471 9.306274 6.131459 24.081432 -21.641629 5.721190 -29.584783 13.827359 -43.834877 -0.640530 0.000003 6.661991 0.000003 0.000000 1.999889 -0.000015 -0.000003 -3.041949 0.000001 -12.929794 -9.992660 -5.749823 -27.383048 -24.582932 36.332027 -33.838888 28.090992 -83.939378 -53.199135 4.814590 -26.860057 -74.128870 11.593539 0.286454 -96.095045 0.021991 -0.019444 -96.095045 0.021901 -0.019608 -63.264627 0.010881 -0.017694 -95.048079 0.021528 -0.019745 -95.048250 0.021528 -0.019746 -84.444477 -10.119179 -0.020073 -89.056712 0.019460 -0.019710 -102.105830 0.023939 -0.019277 -75.502653 0.014779 -0.019308 -94.514880 0.021176 -0.020215 -94.514874 0.021169 -0.020215 -19.239091 1.320693 4.679950 -0.015062 -0.007117 49.512677 -0.017423 -0.010414 61.620976 -6.603619 2.569724 -17.507771 8.529409 -18.136686 19.133808 3.311213 2.093228 106.460191 -10.118936 0.109329 -1.635485 24.772516 8.324266 8.311055 34.857908 -0.000033 0.000031 65.465963 0.000009 0.000075 18.997449 0.000011 0.000013 49.627144 0.000028 0.000025 79.118425 0.000055 0.000029 51.509315 -9.735095 -3.241926 56.661846 -0.000149 0.000155 90.360507 0.000041 0.000081 32.298605 0.000345 0.000042 46.746139 0.000009 0.000068 79.955000 -0.000176 0.000338 25.061202 16.833621 5.159351 0.000012 -0.000047 -27.512192 0.000022 -0.000048 -19.656694 12.373181 25.772033 2.923530 -9.594129 -27.856080 4.355583 -0.004601 53.027690 -1.000621 -4.788812 -30.862439 -3.146441 0.003379 -18.288619 0.020084 -26.361344 -33.706266 -14.651640 0.017665 121.157297 2.489048 -2.919574 5.884728 13.242933 -0.000002 10.081043 0.000005 
